<svg width="24" height="24" viewBox="0 0 24 24" fill="none" xmlns="http://www.w3.org/2000/svg">
<g clip-path="url(#clip0)">
<path d="M5.266 9.765C5.73388 8.34945 6.63686 7.11781 7.84612 6.2458C9.05537 5.37378 10.5091 4.90594 12 4.909C13.69 4.909 15.218 5.509 16.418 6.491L19.91 3C17.782 1.145 15.055 0 12 0C7.27 0 3.198 2.698 1.24 6.65L5.266 9.765Z" fill="#EA4335"/>
<path d="M16.04 18.0129C14.95 18.7159 13.566 19.0909 12 19.0909C10.5151 19.094 9.0668 18.6299 7.86024 17.7643C6.65367 16.8987 5.74994 15.6755 5.277 14.2679L1.237 17.3349C2.22824 19.3412 3.76227 21.0293 5.66482 22.2075C7.56738 23.3857 9.7622 24.0066 12 23.9999C14.933 23.9999 17.735 22.9569 19.834 20.9999L16.041 18.0129H16.04Z" fill="#34A853"/>
<path d="M19.834 21C22.029 18.952 23.454 15.904 23.454 12C23.454 11.29 23.345 10.527 23.182 9.81799H12V14.455H18.436C18.119 16.014 17.266 17.221 16.041 18.013L19.834 21Z" fill="#4A90E2"/>
<path d="M5.277 14.268C5.03235 13.5369 4.90807 12.771 4.909 12C4.909 11.218 5.034 10.467 5.266 9.76502L1.24 6.65002C0.416376 8.31271 -0.0081982 10.1445 -1.80108e-06 12C-1.80108e-06 13.92 0.444998 15.73 1.237 17.335L5.277 14.268Z" fill="#FBBC05"/>
</g>
<defs>
<clipPath id="clip0">
<rect width="24" height="24" fill="white"/>
</clipPath>
</defs>
</svg>
