<svg width="25" height="25" viewBox="0 0 25 25" fill="none" xmlns="http://www.w3.org/2000/svg">
<path d="M12.5 14.4329C13.5787 14.4329 14.4531 13.5584 14.4531 12.4797C14.4531 11.4011 13.5787 10.5266 12.5 10.5266C11.4213 10.5266 10.5469 11.4011 10.5469 12.4797C10.5469 13.5584 11.4213 14.4329 12.5 14.4329Z" fill="#00D8FF"/>
<path d="M12.5 16.9579C10.1524 17.0147 7.81078 16.6982 5.5625 16.0204C4.52392 15.6911 3.55526 15.1725 2.70547 14.4907C2.3812 14.2578 2.11115 13.9574 1.91386 13.6103C1.71657 13.2632 1.59671 12.8775 1.5625 12.4797C1.5625 11.1883 2.98125 9.92271 5.35781 9.09459C7.6662 8.3608 10.0781 8.00517 12.5 8.04146C14.8896 8.00808 17.2692 8.35728 19.5484 9.07584C20.5487 9.39471 21.4845 9.88828 22.3125 10.5336C22.6312 10.7557 22.8972 11.0452 23.0916 11.3815C23.2861 11.7178 23.4041 12.0927 23.4375 12.4797C23.4375 13.8219 21.8516 15.1821 19.2969 16.0274C17.0921 16.6832 14.7999 16.997 12.5 16.9579V16.9579ZM12.5 8.97584C10.1829 8.94487 7.87565 9.28295 5.66484 9.9774C3.47734 10.7407 2.49688 11.7844 2.49688 12.4774C2.49688 13.2024 3.55078 14.3422 5.86484 15.1336C8.01568 15.7788 10.2552 16.0792 12.5 16.0235C14.7003 16.0628 16.8937 15.7651 19.0039 15.1407C21.4063 14.3446 22.5 13.2032 22.5 12.4797C22.4606 12.2315 22.3701 11.9941 22.2343 11.7826C22.0985 11.5711 21.9203 11.39 21.7109 11.2508C20.9701 10.6783 20.1341 10.2409 19.2414 9.95865C17.061 9.27408 14.7851 8.9423 12.5 8.97584V8.97584Z" fill="#00D8FF"/>
<path d="M8.0625 22.2211C7.69805 22.2295 7.33789 22.1411 7.01875 21.9649C5.9 21.3196 5.5125 19.4586 5.98203 16.986C6.49972 14.6196 7.39672 12.3526 8.63828 10.2727C9.80291 8.18604 11.2939 6.29918 13.0547 4.68362C13.8306 3.97636 14.7257 3.41217 15.6984 3.01721C16.0503 2.85232 16.4341 2.76685 16.8227 2.76685C17.2112 2.76685 17.595 2.85232 17.9469 3.01721C19.1102 3.68752 19.4953 5.74065 18.9523 8.37581C18.4187 10.6137 17.545 12.7566 16.3617 14.7297C15.2381 16.7917 13.794 18.6621 12.0836 20.2711C11.2795 21.0061 10.3464 21.5859 9.33125 21.9813C8.92486 22.1321 8.49591 22.2132 8.0625 22.2211V22.2211ZM9.44766 10.7367C8.26336 12.7284 7.40364 14.8959 6.90078 17.1578C6.46875 19.4352 6.88359 20.8047 7.48672 21.1532C8.11172 21.5149 9.62891 21.1719 11.4711 19.5625C13.1039 18.0211 14.4822 16.2307 15.5547 14.2578C16.6882 12.3715 17.5263 10.3228 18.0398 8.18284C18.5508 5.70237 18.1094 4.18362 17.4828 3.82268C17.248 3.7327 16.997 3.69242 16.7458 3.70439C16.4946 3.71636 16.2487 3.78031 16.0234 3.89221C15.1576 4.24951 14.3615 4.75677 13.6719 5.39065C11.9896 6.93814 10.5654 8.74451 9.45313 10.7414L9.44766 10.7367Z" fill="#00D8FF"/>
<path d="M16.9352 22.2313C15.8766 22.2313 14.532 21.5907 13.132 20.3868C11.3404 18.7565 9.8242 16.8472 8.64218 14.7329C7.41619 12.6816 6.5263 10.4473 6.00625 8.11489C5.78071 7.08871 5.73891 6.03066 5.88281 4.98989C5.91608 4.6038 6.03364 4.22971 6.22721 3.894C6.42078 3.55829 6.68564 3.26913 7.00312 3.04692C8.16484 2.37426 10.1359 3.06567 12.1477 4.85161C13.82 6.43144 15.2401 8.25841 16.3586 10.2688C17.5838 12.2722 18.483 14.4575 19.0227 16.743C19.2579 17.8068 19.2942 18.905 19.1297 19.9821C19.0905 20.3793 18.966 20.7633 18.7645 21.1078C18.563 21.4524 18.2895 21.7493 17.9625 21.9782C17.6486 22.1522 17.294 22.2395 16.9352 22.2313V22.2313ZM9.45078 14.2625C10.5847 16.2832 12.033 18.1105 13.7414 19.6758C15.4984 21.1875 16.8922 21.5125 17.4914 21.1602C18.1164 20.7969 18.5773 19.3141 18.1023 16.9149C17.5819 14.7328 16.7194 12.6468 15.5469 10.7344C14.4796 8.8103 13.124 7.06087 11.5273 5.54692C9.63359 3.86567 8.09765 3.48989 7.47187 3.85239C7.27683 4.01089 7.11677 4.20811 7.0018 4.4316C6.88683 4.65508 6.81944 4.89998 6.8039 5.15083C6.67969 6.07902 6.72015 7.02184 6.92343 7.93598C7.42367 10.1666 8.27714 12.3029 9.45156 14.2641L9.45078 14.2625Z" fill="#00D8FF"/>
</svg>
